<svg id="Layer_2" data-name="Layer 2" xmlns="http://www.w3.org/2000/svg" width="87.24" height="116.82" viewBox="0 0 87.24 116.82">
  <title>mounsto8</title>
  <g>
    <rect x="26.32" y="46.59" width="10.44" height="21.07" transform="translate(-40.63 27.75) rotate(-45)" style="fill: #553982"/>
    <circle cx="23.64" cy="48.69" r="14.16" transform="translate(-38.66 49.22) rotate(-76.72)" style="fill: #9365b8"/>
    <path d="M33.66,58.69a14.16,14.16,0,1,0-20.1-19.94Z" transform="translate(-9.47 -11.29)" style="fill: #714d84"/>
    <rect x="69.5" y="46.59" width="10.44" height="21.07" transform="translate(52.81 -47.4) rotate(45)" style="fill: #553982"/>
    <circle cx="82.55" cy="48.69" r="14.16" transform="translate(-19.72 61.35) rotate(-45)" style="fill: #9365b8"/>
    <path d="M92.79,38.92,72,58.11A14.15,14.15,0,1,0,92.79,38.92Z" transform="translate(-9.47 -11.29)" style="fill: #714d84"/>
    <rect x="34.81" y="30.12" width="17.62" height="21.07" style="fill: #553982"/>
    <circle cx="53.1" cy="29.25" r="17.96" transform="translate(2.95 62.92) rotate(-76.72)" style="fill: #9365b8"/>
    <path d="M53.27,11.3V47.21a18,18,0,0,0,0-35.91Z" transform="translate(-9.47 -11.29)" style="fill: #714d84"/>
    <ellipse cx="43.36" cy="79.3" rx="24.7" ry="37.52" style="fill: #9365b8"/>
    <path d="M52.83,112.21c-11.84,0-21.74-12.66-24.14-29.57a57.23,57.23,0,0,0-.56,8c0,20.72,11.06,37.52,24.7,37.52s24.7-16.8,24.7-37.52a57.23,57.23,0,0,0-.56-8C74.57,99.55,64.68,112.21,52.83,112.21Z" transform="translate(-9.47 -11.29)" style="fill: #714d84"/>
    <g>
      <circle cx="53.1" cy="29.25" r="15.17" transform="translate(2.95 62.92) rotate(-76.72)" style="fill: #fff"/>
      <circle cx="43.62" cy="17.96" r="12.65" style="fill: #2095f2"/>
      <circle cx="53.1" cy="29.25" r="8.04" transform="translate(2.95 62.92) rotate(-76.72)"/>
      <path d="M63.81,22.12A6.11,6.11,0,1,1,57.71,16,6.11,6.11,0,0,1,63.81,22.12Z" transform="translate(-9.47 -11.29)" style="fill: #fff"/>
    </g>
    <g>
      <circle cx="23.64" cy="48.69" r="11.28" transform="translate(-37.69 52.93) rotate(-80.78)" style="fill: #fff"/>
      <circle cx="23.64" cy="48.69" r="9.41" transform="translate(-26.31 1.46) rotate(-22.5)" style="fill: #2095f2"/>
      <path d="M29.61,48.69a6,6,0,1,1-6-6A6,6,0,0,1,29.61,48.69Z" transform="translate(-9.47 -11.29)"/>
      <path d="M31.61,43.39a4.55,4.55,0,1,1-4.54-4.54A4.54,4.54,0,0,1,31.61,43.39Z" transform="translate(-9.47 -11.29)" style="fill: #fff"/>
    </g>
    <path d="M73.53,76c0,16-9.27,28.88-20.7,28.88S32.14,91.93,32.14,76a33.66,33.66,0,0,1,2-11.54A18.17,18.17,0,0,1,41.66,55c3.09-2,6.13-2.53,9.78-2.83A37.49,37.49,0,0,1,55.68,52a23.81,23.81,0,0,1,6.88,1.36C72.3,56.73,73.53,66.82,73.53,76Z" transform="translate(-9.47 -11.29)" style="fill: #9365b8"/>
    <path d="M73.17,77.89C73.17,94,64.06,107,52.83,107S32.5,94,32.49,77.89a34.75,34.75,0,0,1,1.95-11.65,18.21,18.21,0,0,1,7.41-9.49c3-2,6-2.55,9.61-2.86a36.37,36.37,0,0,1,4.17-.19,22.73,22.73,0,0,1,6.76,1.38C72,58.46,73.17,68.65,73.17,77.89Z" transform="translate(-9.47 -11.29)" style="fill: #28324e"/>
    <path d="M39.21,92.24A14.74,14.74,0,0,1,52.46,79.87,15.66,15.66,0,0,1,67.75,89.93a6.45,6.45,0,0,1,.49,2.59,7.49,7.49,0,0,1-.64,2.32,18.61,18.61,0,0,1-4.25,6.67c-5,4.65-13.15,4.26-19.1.93a10.17,10.17,0,0,1-4.11-3.71c-1.11-2-1.06-4.42-1-6.71Z" transform="translate(-9.47 -11.29)"/>
    <path d="M52.86,55.11h0A19.82,19.82,0,0,0,42,58.44a18,18,0,0,0-4.73,4.44c-.75,1-2.63,3.85-1.31,5,.84.75,2.65-.18,3.59-.33,1.53-.25,1.48-1.62,1.64-3-.23,2,1.88,2.34,3.26,2.23,1.74-.14,3.49.21,5.23.23.8,0,1.86.25,2.51-.21a5.19,5.19,0,0,0,1.35-2.64,10.69,10.69,0,0,0,.35,2.64A.38.38,0,0,0,54,67a.43.43,0,0,0,.31.1l3.1.19c1.72.11,3.81.66,5.5.45s1.33-2.46,1.15-3.94L65.37,67a2.55,2.55,0,0,0,3.8,1.07c3.1-1.75-2.38-8.24-3.8-9.5C61.75,55.41,57.43,55.12,52.86,55.11Z" transform="translate(-9.47 -11.29)" style="fill: #fff"/>
    <path d="M52.83,111.64a18.52,18.52,0,0,1-12.81-5,16.05,16.05,0,0,0,25.62,0A18.5,18.5,0,0,1,52.83,111.64Z" transform="translate(-9.47 -11.29)" style="fill: #553982"/>
    <path d="M54.55,104.12c-3.61.41-7.71-.55-8.76-2.85-.86-1.91,1-3.41,3-3.4,1.53,0,2.82.68,4.32.62A10.08,10.08,0,0,0,56,97.83a5,5,0,0,1,2.81-.46,2.42,2.42,0,0,1,1.73,2.09C60.81,102.2,57.89,103.74,54.55,104.12Z" transform="translate(-9.47 -11.29)" style="fill: #b8312f"/>
    <path d="M55.42,79.51a.65.65,0,0,0-.38-.68,1.74,1.74,0,0,0-.82-.11c-.55,0-1.69,0-2,.55-.52.85.68,1.6.84,2.32a1.36,1.36,0,0,1-.29.93A4,4,0,0,0,52,84a1.7,1.7,0,0,0,1.39,1.87,1.75,1.75,0,0,0,1.25-.42c1.52-1.26,0-2-.16-3.39A2.58,2.58,0,0,1,55.09,80,1.19,1.19,0,0,0,55.42,79.51Z" transform="translate(-9.47 -11.29)" style="fill: #28324e"/>
    <path d="M52.82,101.39c-1.11,0-2.59.3-2,1.38a4.5,4.5,0,0,0-1.72-1.89,4.22,4.22,0,0,0-2.3-.17c-.26.15-.79,1.13-.61,1.34-.9-1.09-1.25-1.74-2.58-2.12-.13,0-1.94-.39-1.74-.7-.83,1.34.24,1.87,1.32,2.76a17.17,17.17,0,0,0,3,2,13.91,13.91,0,0,0,13,.13c.91-.45,5.17-2.52,4.76-3.75-.5-1.49-3.75-.06-4.58.24s-3,1-2.5,2.32c-.68-1.63-1.58-1.47-3.08-1.52C53.64,101.39,53.26,101.37,52.82,101.39Z" transform="translate(-9.47 -11.29)" style="fill: #fff"/>
    <path d="M53.63,84.64a1.56,1.56,0,0,0-.51-.27c-.16-.08-.35-.18-.39-.35s0-.13-.06-.17a.12.12,0,0,0-.14,0,.28.28,0,0,0-.09.13,1.1,1.1,0,0,0,.41,1.3c.4.22,1.24.06.85-.55A.22.22,0,0,0,53.63,84.64Z" transform="translate(-9.47 -11.29)" style="fill: #6e6d82"/>
    <g>
      <circle cx="82.55" cy="48.69" r="11.28" transform="translate(11.8 111.09) rotate(-80.78)" style="fill: #fff"/>
      <circle cx="82.55" cy="48.69" r="9.41" transform="translate(-21.82 24.01) rotate(-22.5)" style="fill: #2095f2"/>
      <path d="M88.53,48.69a6,6,0,1,1-6-6A6,6,0,0,1,88.53,48.69Z" transform="translate(-9.47 -11.29)"/>
      <path d="M90.53,43.39A4.55,4.55,0,1,1,86,38.85,4.55,4.55,0,0,1,90.53,43.39Z" transform="translate(-9.47 -11.29)" style="fill: #fff"/>
    </g>
  </g>
</svg>
