<svg id="Layer_2" data-name="Layer 2" xmlns="http://www.w3.org/2000/svg" width="76.92" height="111.94" viewBox="0 0 76.92 111.94">
  <title>mounsto6</title>
  <g>
    <g>
      <path d="M45.11,86.84c.1-9.49-8.23-14.21-16-9.26-4.35,2.77-6.77,7.88-7.41,13.3-.62,5.25,2.2,10.54,4.44,15.06,2.44,4.93,6.25,12.49,10.59,15.59,5.22,3.74,3.8-3.56,3.63-6.54A46.38,46.38,0,0,1,42,99.82c1-3.57,2.45-7,3-10.71A18.21,18.21,0,0,0,45.11,86.84Z" transform="translate(-13.44 -10.63)" style="fill: #00a885"/>
      <path d="M58.69,86.84c-.1-9.49,8.23-14.21,16-9.26,4.35,2.77,6.77,7.88,7.41,13.3.62,5.25-2.2,10.54-4.44,15.06-2.44,4.93-6.25,12.49-10.59,15.59-5.22,3.74-3.8-3.56-3.63-6.54a46.12,46.12,0,0,0-1.61-15.17c-1-3.57-2.45-7-3-10.71A18.21,18.21,0,0,1,58.69,86.84Z" transform="translate(-13.44 -10.63)" style="fill: #00a885"/>
    </g>
    <path d="M47.13,18.77C45.73,19,44.45,19.88,43,20a20.22,20.22,0,0,1-3.89,0c-.43,0-.94-.19-1-.6a1.62,1.62,0,0,1,0-.58c.12-1.62-1.75-1.57-2.83-1.74-.35-.06-.79-.27-.69-.6a.59.59,0,0,1,.24-.28,7.45,7.45,0,0,1,3.47-1.4c.76-.1,2.68-.55,3.36-.26a7.41,7.41,0,0,1-1.95-1.21,1,1,0,0,1-.44-.78,1,1,0,0,1,.39-.59c1.87-1.58,4.62-1.6,7-1s4.57,1.8,7,2.36A20.9,20.9,0,0,1,55,11.85a5.82,5.82,0,0,1,2.15-.93c.8-.15,2.6-.1,3,.79.35.73-1.75,2.57-.65,3a1,1,0,0,0,.54,0,15.41,15.41,0,0,1,3.83-.87,13.66,13.66,0,0,1,2.39-.17c.86.05,6,.86,5.44,2.49-.12.35-.5.51-.84.64-.68.25-2.14.48-2.59,1.08s.14,1.63-.37,2.05a.61.61,0,0,1-.4.09,86.52,86.52,0,0,1-11.94-.61C52.79,18.94,49.93,18.25,47.13,18.77Z" transform="translate(-13.44 -10.63)" style="fill: #28324e"/>
    <path d="M31.65,37.11c.4-.6.83-1.19,1.27-1.76,2.76-3.58,5.7-6.52,7.65-10.7.66-1.43,2.27-7.46,4.62-7-4.17-.77-8.53.26-12.46,1.65a53,53,0,0,0-6,2.61C25.64,22.4,24,23,23.34,24c-1.33,2,2.91,1.54,4,1.62-.67,0-2.56,2-3.06,2.49a20.47,20.47,0,0,0-2.52,2.4C19.85,33,24,32.31,25.32,32.15c.12,0-1.51,2.81-1.59,2.94a20.45,20.45,0,0,0-1.9,4.11c-.16.48-.19,1.18.3,1.3a1,1,0,0,0,.63-.14l2.94-1.48c-.72,3,.17,6,1.05,9A35.2,35.2,0,0,1,31.65,37.11Z" transform="translate(-13.44 -10.63)" style="fill: #28324e"/>
    <path d="M70.89,37.11c-.4-.6-.83-1.19-1.27-1.76-2.76-3.58-5.7-6.52-7.64-10.7-.67-1.43-2.28-7.46-4.63-7,4.17-.77,8.54.26,12.46,1.65a54,54,0,0,1,6.06,2.61c1,.52,2.67,1.16,3.33,2.15,1.34,2-2.9,1.54-4,1.62.67,0,2.56,2,3.06,2.49a20.47,20.47,0,0,1,2.52,2.4c1.91,2.45-2.28,1.77-3.55,1.61a32.51,32.51,0,0,0,1.58,2.94,20.48,20.48,0,0,1,1.91,4.11c.16.48.18,1.18-.3,1.3a1,1,0,0,1-.64-.14l-2.94-1.48c.72,3-.17,6-1,9A35.2,35.2,0,0,0,70.89,37.11Z" transform="translate(-13.44 -10.63)" style="fill: #28324e"/>
    <path d="M69.84,45.35c-.6,1.27-1.19,2.53-1.69,3.84-1.15,3-1.74,6.48-.45,9.44.56,1.26,1.42,2.37,1.88,3.67,1.55,4.44-1.84,10.29-5.22,13a21.25,21.25,0,0,1-13.19,4.85c-5.48,0-9.9-2.57-14.42-5.33-4.07-2.47-3.53-7.51-2.5-11.72,1-4,2.3-8.37.56-12.11a29,29,0,0,0-2.29-3.55c-8.91-13.5,3.56-31,18.65-31,11.47,0,24.51,11.74,20.77,23.87A39.36,39.36,0,0,1,69.84,45.35Z" transform="translate(-13.44 -10.63)" style="fill: #1abc9c"/>
    <ellipse cx="38.46" cy="69" rx="38.46" ry="24.69" style="fill: #1abc9c"/>
    <g>
      <circle cx="8.41" cy="60.86" r="1.19" style="fill: #00a885"/>
      <path d="M27.59,72.92a1.8,1.8,0,1,1-1.8-1.79A1.8,1.8,0,0,1,27.59,72.92Z" transform="translate(-13.44 -10.63)" style="fill: #00a885"/>
      <path d="M26.09,69.1a.9.9,0,1,1-.89-.9A.89.89,0,0,1,26.09,69.1Z" transform="translate(-13.44 -10.63)" style="fill: #00a885"/>
    </g>
    <circle cx="51.23" cy="35.91" r="17.46" transform="translate(-5.86 70.1) rotate(-80.78)" style="fill: #00a885"/>
    <circle cx="51.23" cy="35.91" r="14.87" transform="translate(-8.93 66.89) rotate(-76.72)" style="fill: #fff"/>
    <circle cx="37.79" cy="25.28" r="12.4" style="fill: #fac51c"/>
    <circle cx="37.79" cy="25.28" r="7.88"/>
    <path d="M61.74,28.92a6,6,0,1,1-6-6A6,6,0,0,1,61.74,28.92Z" transform="translate(-13.44 -10.63)" style="fill: #fff"/>
    <circle cx="52.1" cy="64.96" r="12.93" transform="translate(-36.54 90.12) rotate(-76.72)" style="fill: #00a885"/>
    <circle cx="52.1" cy="64.96" r="11.06" transform="translate(-34.34 14.25) rotate(-22.5)" style="fill: #fff"/>
    <circle cx="52.1" cy="64.96" r="9.22" transform="matrix(0.16, -0.99, 0.99, 0.16, -33.81, 95.36)" style="fill: #fac51c"/>
    <path d="M58,65A5.86,5.86,0,1,1,52.1,59.1,5.86,5.86,0,0,1,58,65Z" transform="translate(-13.44 -10.63)"/>
    <circle cx="42.02" cy="49.13" r="4.45" style="fill: #fff"/>
    <path d="M31.58,90.22a1,1,0,0,1,.12-.29c1.18-2.08,5.42-1.58,7.35-1.51a40.3,40.3,0,0,0,10.32-.63A88.61,88.61,0,0,0,65,82.71c2.32-1,9.1-5.85,10-.85C76.57,91.5,61.81,94.4,55.19,94.64a85.07,85.07,0,0,1-14.68-1.16,44.13,44.13,0,0,1-5.51-1C34.05,92.23,31.18,91.63,31.58,90.22Z" transform="translate(-13.44 -10.63)" style="fill: #00a885"/>
    <path d="M29.63,87a1.51,1.51,0,0,1,.13-.3c1.26-2.07,5.81-1.58,7.89-1.51a46.89,46.89,0,0,0,11.08-.62,100.93,100.93,0,0,0,16.78-5.09c2.5-1,9.78-5.85,10.68-.84,1.74,9.63-14.1,12.53-21.2,12.78a98.19,98.19,0,0,1-15.78-1.17,51,51,0,0,1-5.91-1C32.28,89,29.2,88.41,29.63,87Z" transform="translate(-13.44 -10.63)" style="fill: #f7da64"/>
    <path d="M31.58,88.74a1,1,0,0,1,.12-.29c1.18-2.08,5.42-1.58,7.35-1.52a40.3,40.3,0,0,0,10.32-.62A87.82,87.82,0,0,0,65,81.22c2.32-1,9.1-5.85,10-.84C76.57,90,61.81,92.92,55.19,93.16A85.07,85.07,0,0,1,40.51,92,46,46,0,0,1,35,91C34.05,90.75,31.18,90.15,31.58,88.74Z" transform="translate(-13.44 -10.63)" style="fill: #28324e"/>
    <path d="M79,74.17a8.49,8.49,0,0,1,1.73,2.23,7.74,7.74,0,0,1,.79,2.15c.1.5.36,1.84.07,2.26a4.57,4.57,0,0,0,.75-2.54A6.52,6.52,0,0,0,79.73,73a7.87,7.87,0,0,0-7-.94A7.6,7.6,0,0,1,79,74.17Z" transform="translate(-13.44 -10.63)" style="fill: #1abc9c"/>
    <path d="M78.91,75.49a9.89,9.89,0,0,1,1.49,2.69A9.2,9.2,0,0,1,81,80.66a5.71,5.71,0,0,1-.16,2.52,5.4,5.4,0,0,0,1-2.75,7.75,7.75,0,0,0-2.06-6.18,7.28,7.28,0,0,0-6.84-1.86A7.34,7.34,0,0,1,78.91,75.49Z" transform="translate(-13.44 -10.63)" style="fill: #28324e"/>
    <path d="M45.76,90.69c.28,2.14,5.42,1.77,6.79,1.74,2.72-.06,6.68,0,9-1.7a1.54,1.54,0,0,0,.57-.67,1.13,1.13,0,0,0,0-.63,2,2,0,0,0-1-1.26,4.06,4.06,0,0,0-1.54-.51c-2-.3-3.54.33-5.4.76a49.26,49.26,0,0,1-5.79,1C47.21,89.52,45.65,89.86,45.76,90.69Z" transform="translate(-13.44 -10.63)" style="fill: #b8312f"/>
  </g>
</svg>
