<svg id="Layer_2" data-name="Layer 2" xmlns="http://www.w3.org/2000/svg" width="82.48" height="114.58" viewBox="0 0 82.48 114.58">
  <title>mounsto2</title>
  <g>
    <circle cx="31.73" cy="31.19" r="16.75" transform="translate(-16.4 20.34) rotate(-45)" style="fill: #54acd2"/>
    <circle cx="46.31" cy="36.71" r="12.87" style="fill: #54acd2"/>
    <path d="M86.12,68.9c0,7.63-2.94,15.55-5.8,22.5-3.49,8.5-10.11,16.23-6.94,25.92.64,2,1.57,4.27.35,5.94a5.15,5.15,0,0,1-3,1.66c-13.79,3.42-29.55-3.28-39-13.34-4.68-5-9.57-11.11-12.34-17.32-3.44-7.73-7-16.75-7-25.36,0-14,16.52-25.33,36.9-25.33S86.12,54.91,86.12,68.9Z" transform="translate(-3.63 -11.24)" style="fill: #54acd2"/>
    <circle cx="65.48" cy="34.59" r="12.87" transform="translate(17.21 82.45) rotate(-80.78)" style="fill: #54acd2"/>
    <path d="M65.48,21.72h0V47.46h0a12.87,12.87,0,0,0,0-25.74Z" transform="translate(-3.63 -11.24)" style="fill: #4a97b8"/>
    <path d="M31.73,14.44h-.49V47.93h.49a16.75,16.75,0,0,0,0-33.5Z" transform="translate(-3.63 -11.24)" style="fill: #4a97b8"/>
    <path d="M71.89,65.92c0,7.88-9.84,14.27-22,14.27S28,73.8,28,65.92c0-3.38,2.77-7.4,5.8-8.92,2.68-1.34,5.62-.32,8.35.22a24.56,24.56,0,0,0,11.5,0c3.84-.95,9.23-3,13-1.07C69.89,57.89,71.89,62.32,71.89,65.92Z" transform="translate(-3.63 -11.24)" style="fill: #98bbd4"/>
    <g>
      <path d="M18.54,63.15a1.09,1.09,0,1,1-1.08-1.09A1.08,1.08,0,0,1,18.54,63.15Z" transform="translate(-3.63 -11.24)" style="fill: #b8cee0"/>
      <path d="M22.68,64.45a1.63,1.63,0,1,1-1.63-1.63A1.63,1.63,0,0,1,22.68,64.45Z" transform="translate(-3.63 -11.24)" style="fill: #b8cee0"/>
      <circle cx="16.87" cy="49.73" r="0.82" style="fill: #b8cee0"/>
    </g>
    <circle cx="31.29" cy="32.01" r="13.56" transform="translate(-17.1 20.26) rotate(-45)" style="fill: #fff"/>
    <circle cx="31.29" cy="32.01" r="11.3" transform="translate(-17.1 20.26) rotate(-45)" style="fill: #ccdb38"/>
    <path d="M38.47,32a7.18,7.18,0,1,1-7.18-7.18A7.18,7.18,0,0,1,38.47,32Z" transform="translate(-3.63 -11.24)"/>
    <circle cx="31.78" cy="14.4" r="5.46" style="fill: #fff"/>
    <path d="M71.6,62.16C71.74,70,62,76.6,49.88,76.81s-22.07-6-22.21-13.89c-.06-3.38,2.65-7.45,5.65-9,2.66-1.38,5.61-.41,8.35.08a24.67,24.67,0,0,0,11.5-.19c3.82-1,9.18-3.17,12.94-1.3C69.47,54.16,71.54,58.57,71.6,62.16Z" transform="translate(-3.63 -11.24)" style="fill: #98bbd4"/>
    <path d="M71.89,64.57c0,7.88-9.84,14.27-22,14.27S28,72.45,28,64.57c0-3.38,2.77-7.4,5.8-8.92,2.68-1.34,5.62-.32,8.35.22a24.56,24.56,0,0,0,11.5,0c3.84-1,9.23-3,13-1.07C69.89,56.54,71.89,61,71.89,64.57Z" transform="translate(-3.63 -11.24)" style="fill: #28324e"/>
    <path d="M49.92,81.82c-6.92,0-13.16-1.72-17.57-4.46,4,3.46,10.39,5.7,17.57,5.7s13.55-2.24,17.56-5.7C63.07,80.1,56.84,81.82,49.92,81.82Z" transform="translate(-3.63 -11.24)" style="fill: #4d9dc0"/>
    <path d="M48.85,110.4a26.5,26.5,0,0,1-14.76-5.84c3.17,3.77,8.48,6.5,14.66,7.07s11.86-1.15,15.6-4.28A26.13,26.13,0,0,1,48.85,110.4Z" transform="translate(-3.63 -11.24)" style="fill: #4d9dc0"/>
    <path d="M55.54,116.67A25.49,25.49,0,0,1,40,115c3.85,2.81,9.58,4,15.73,3a23,23,0,0,0,14.37-8.32A27.8,27.8,0,0,1,55.54,116.67Z" transform="translate(-3.63 -11.24)" style="fill: #4d9dc0"/>
    <path d="M58.62,121a20.28,20.28,0,0,1-13.83-.87c3.58,2.57,8.7,3.49,14,2.07a19.82,19.82,0,0,0,12.08-9A23.53,23.53,0,0,1,58.62,121Z" transform="translate(-3.63 -11.24)" style="fill: #4d9dc0"/>
    <path d="M73.06,116.22a24.09,24.09,0,0,1-9.08,8,23.84,23.84,0,0,1-3.6,1.49c1,.08,2.07.11,3.11.1.32-.14.63-.29.95-.45a20.25,20.25,0,0,0,8.76-8.61C73.15,116.57,73.1,116.39,73.06,116.22Z" transform="translate(-3.63 -11.24)" style="fill: #4d9dc0"/>
    <path d="M52.12,78.07c-5.48.39-11.7-.54-13.28-2.77C37.53,73.45,40.4,72,43.35,72c2.31,0,4.26.66,6.53.6A22.75,22.75,0,0,0,54.3,72a11.23,11.23,0,0,1,4.27-.45,2.92,2.92,0,0,1,2.61,2C61.61,76.2,57.18,77.7,52.12,78.07Z" transform="translate(-3.63 -11.24)" style="fill: #98bbd4"/>
    <path d="M40.32,32.44s0,.47-.06,1.36c0,.22,0,.47,0,.74s-.07.57-.11.9-.08.66-.13,1-.15.75-.23,1.16c-.14.83-.43,1.7-.7,2.68a22.44,22.44,0,0,1-1.27,3A20,20,0,0,1,33,49.54a16.55,16.55,0,0,1-8.56,3.8,8.82,8.82,0,0,1-1.27.1,11.31,11.31,0,0,1-1.31,0,16.89,16.89,0,0,1-2.56-.32,17.25,17.25,0,0,1-2.58-.71c-.42-.17-.83-.36-1.24-.54a8.08,8.08,0,0,1-1.2-.63,12.56,12.56,0,0,1-1.17-.71L12,49.75c-.36-.28-.69-.61-1-.9l-.52-.46-.48-.51c-.31-.34-.65-.66-.93-1L8.1,45.76c-.28-.37-.52-.78-.78-1.17L6.93,44l-.34-.62a21.39,21.39,0,0,1-2.12-5.27l-.35-1.39c-.09-.47-.15-.95-.23-1.42l-.11-.71,0-.72-.1-1.44,0-1.44,0-.71.08-.73c.06-.48.1-1,.17-1.45l.29-1.42a21.91,21.91,0,0,1,2-5.39,19.68,19.68,0,0,1,3.37-4.6l.49-.51c.17-.16.36-.31.53-.46.36-.3.71-.63,1.08-.91l1.15-.8a13,13,0,0,1,1.2-.71,8.28,8.28,0,0,1,1.23-.61c.43-.18.85-.37,1.27-.52a17.76,17.76,0,0,1,2.63-.66,15.64,15.64,0,0,1,2.63-.27c.13,0,.18,0,.37,0l.31,0,.62,0a9.11,9.11,0,0,1,1.24.12A16.76,16.76,0,0,1,33,15.31a20,20,0,0,1,4.83,6.24,22.44,22.44,0,0,1,1.27,3c.27,1,.56,1.86.7,2.68.08.41.17.79.23,1.16s.08.71.12,1,.08.61.12.89,0,.52,0,.74C40.3,32,40.32,32.44,40.32,32.44Zm-.14,0s0-.47-.07-1.36c0-.22,0-.47,0-.74s-.08-.56-.13-.88-.09-.66-.15-1-.18-.74-.27-1.14a19.52,19.52,0,0,0-2.26-5.46,19.78,19.78,0,0,0-5-5.64,17,17,0,0,0-8-3.38,16.68,16.68,0,0,0-7.21.72c-.39.14-.77.31-1.16.46a7.13,7.13,0,0,0-1.15.55,10.32,10.32,0,0,0-1.12.63l-1.08.72c-.35.26-.67.55-1,.83-.17.14-.35.27-.51.42l-.46.47A18.42,18.42,0,0,0,7.3,21.88a20.87,20.87,0,0,0-2.1,5.06l-.34,1.34c-.09.45-.15.91-.23,1.36l-.11.69,0,.7-.1,1.41,0,1.4,0,.7.08.69c0,.47.09.93.16,1.4L5,38a20.6,20.6,0,0,0,2,5.18,17.73,17.73,0,0,0,3.29,4.36l.48.48.52.43c.35.28.69.57,1.05.83l1.12.72a12.74,12.74,0,0,0,1.15.62,8.39,8.39,0,0,0,1.18.54l1.2.45a18.17,18.17,0,0,0,2.44.55,9.9,9.9,0,0,0,1.22.14l1.26,0a9.56,9.56,0,0,0,1.18-.05,9.07,9.07,0,0,0,1.18-.12,17.32,17.32,0,0,0,8.05-3.47,20,20,0,0,0,5-5.66,19.46,19.46,0,0,0,2.25-5.46c.09-.4.2-.78.27-1.14s.1-.71.15-1,.09-.61.12-.88,0-.52,0-.74C40.16,32.91,40.18,32.44,40.18,32.44Z" transform="translate(-3.63 -11.24)" style="fill: #3e50b4"/>
    <path d="M86.12,68.9c0-8.75-6.47-16.46-16.3-21a35.28,35.28,0,0,1,6.72,16C79.21,79,63.42,97.52,61.9,110.25c-1.08,9,5.71,12.91,9.73,14.39a4.09,4.09,0,0,0,2.1-1.38c1.22-1.67.29-4-.35-5.94-3.17-9.69,3.45-17.42,6.94-25.92C83.18,84.45,86.12,76.53,86.12,68.9Z" transform="translate(-3.63 -11.24)" style="fill: #4a97b8"/>
    <circle cx="65.1" cy="34.49" r="10.08" transform="translate(12.94 78.69) rotate(-76.72)" style="fill: #fff"/>
    <circle cx="65.1" cy="34.49" r="8.41" transform="translate(12.94 78.69) rotate(-76.72)" style="fill: #ccdb38"/>
    <path d="M70.44,34.49a5.34,5.34,0,1,1-5.34-5.34A5.34,5.34,0,0,1,70.44,34.49Z" transform="translate(-3.63 -11.24)"/>
    <circle cx="64.53" cy="18.51" r="4.06" style="fill: #fff"/>
    <path d="M40.36,33.05s.23-.2.66-.5a18.78,18.78,0,0,1,1.87-1.16,20.09,20.09,0,0,1,2.86-1.23,14.58,14.58,0,0,1,1.7-.46,13.52,13.52,0,0,1,1.82-.26,12.56,12.56,0,0,1,1.84,0,10.27,10.27,0,0,1,1.76.3,9.38,9.38,0,0,1,1.57.56,9.85,9.85,0,0,1,1.3.71,10,10,0,0,1,1,.75c.27.26.51.47.69.66l.56.62-.64-.52c-.21-.17-.47-.34-.76-.56s-.65-.42-1.05-.62a9.09,9.09,0,0,0-1.29-.59,13.48,13.48,0,0,0-1.52-.43,12.91,12.91,0,0,0-1.67-.23,12.64,12.64,0,0,0-1.74,0,17.77,17.77,0,0,0-3.4.61,23.59,23.59,0,0,0-2.87,1c-.82.36-1.5.67-2,.92S40.36,33.05,40.36,33.05Z" transform="translate(-3.63 -11.24)" style="fill: #3e50b4"/>
    <path d="M84.43,36.24l-.2,1c0,.16-.07.34-.11.55s-.11.41-.18.65A15.27,15.27,0,0,1,83.45,40a18.51,18.51,0,0,1-2,4.07,15,15,0,0,1-4.14,4.28,10,10,0,0,1-1.46.86,17,17,0,0,1-1.64.67,9.8,9.8,0,0,1-1.8.41c-.31,0-.62.1-.94.12h-1a6.2,6.2,0,0,1-1-.07,9.59,9.59,0,0,1-1-.14L67.65,50c-.3-.07-.63-.23-1-.34a11.84,11.84,0,0,1-1.82-.9,12.1,12.1,0,0,1-1.64-1.23,12.59,12.59,0,0,1-1.45-1.47,15.78,15.78,0,0,1-1.22-1.69,19.17,19.17,0,0,1-1-1.84,19.54,19.54,0,0,1-.76-2,18,18,0,0,1-.86-4.18A20.22,20.22,0,0,1,58,32.06L58.18,31l.09-.52.14-.54.27-1.06.36-1c.12-.35.27-.68.42-1s.3-.67.47-1A20.37,20.37,0,0,1,61.07,24a16,16,0,0,1,1.35-1.7A15.63,15.63,0,0,1,64,20.82a14.17,14.17,0,0,1,1.74-1.25,13.36,13.36,0,0,1,1.9-.93,12.19,12.19,0,0,1,2-.63,13.16,13.16,0,0,1,2-.24,8.68,8.68,0,0,1,1,0l1,.1h.22l.07,0,.23.05.46.1a6.92,6.92,0,0,1,.91.25l.94.34c.31.12.58.28.86.41A11.92,11.92,0,0,1,79,20a12.53,12.53,0,0,1,2.48,2.45,15.16,15.16,0,0,1,2.59,5.36,18.3,18.3,0,0,1,.63,4.49,14.88,14.88,0,0,1,0,1.67c0,.24,0,.46,0,.67s-.05.39-.07.55Zm-.14,0s0-.35.11-1c0-.17,0-.35.06-.55s0-.43,0-.67a11.82,11.82,0,0,0,0-1.65,15.61,15.61,0,0,0-1-4.32,15,15,0,0,0-2.89-4.82,13.62,13.62,0,0,0-2.36-2.09,12.6,12.6,0,0,0-1.43-.82c-.26-.11-.51-.25-.77-.35l-.78-.26a10.35,10.35,0,0,0-3.5-.46,11.24,11.24,0,0,0-1.81.19,14.47,14.47,0,0,0-1.78.53,12.86,12.86,0,0,0-1.73.8,14.23,14.23,0,0,0-1.61,1.09,15.34,15.34,0,0,0-1.48,1.32,18.54,18.54,0,0,0-2.43,3.22c-.18.3-.32.61-.48.91a7.34,7.34,0,0,0-.44.94l-.4,1-.32,1-.16.49-.12.52-.25,1a16.86,16.86,0,0,0,.46,8.26A13.23,13.23,0,0,0,61,44.12a11.87,11.87,0,0,0,1.25,1.56A12.9,12.9,0,0,0,63.7,47a11.6,11.6,0,0,0,1.61,1,10.86,10.86,0,0,0,1.71.71,7.2,7.2,0,0,0,.86.25l.93.17a5.81,5.81,0,0,0,.86.09,5.07,5.07,0,0,0,.87,0,12.52,12.52,0,0,0,3.33-.5,14,14,0,0,0,2.89-1.29A15.88,15.88,0,0,0,83.23,40a11.38,11.38,0,0,0,.55-1.56l.19-.64c0-.2.08-.38.11-.54Z" transform="translate(-3.63 -11.24)" style="fill: #3e50b4"/>
  </g>
</svg>
