<svg id="Layer_2" data-name="Layer 2" xmlns="http://www.w3.org/2000/svg" width="113.58" height="107.99" viewBox="0 0 113.58 107.99">
  <title>mounsto4</title>
  <g>
    <path d="M41.17,23.11A23,23,0,0,0,34.79,7.73a30.58,30.58,0,0,1,15.6,13.76,14.17,14.17,0,0,1,9-6.28,13.44,13.44,0,0,0-2.8,12.08,21.85,21.85,0,0,0-9.21,7.57c-1.52-3.93-3.15-8-6.27-10.85.06-.7.13-1.4.19-2.1Z" transform="translate(-5 -7.73)" style="fill: #28324e"/>
    <path d="M106,102a19.11,19.11,0,0,0,9.08-7.87,2.93,2.93,0,0,1,.9-1,1.79,1.79,0,0,1,2.32.94,4.27,4.27,0,0,1,.12,2.74c-1.3,6.41-6.33,11.64-12.27,14.38S93.46,114.43,86.94,114a16.73,16.73,0,0,1-5.49-1.06c-4.75-2-7.1-7.43-7.8-12.54a33.79,33.79,0,0,1,3.48-20.05c1.52-2.93,5.06-6.25,8-2.86,1.18,1.34,1.4,3.24,1.66,5A57.18,57.18,0,0,0,90.08,95C92.72,101.81,99,104.73,106,102Z" transform="translate(-5 -7.73)" style="fill: #28324e"/>
    <path d="M87.71,57.61c0-.17,0-.33,0-.5a7.13,7.13,0,0,0-.17-1.54C86.62,49,81.44,43.13,73.68,39a11.69,11.69,0,0,0,.14-1.79c0-7.2-6.57-13-14.68-13a15.53,15.53,0,0,0-10.85,4.26,19.32,19.32,0,0,0-16.48-8.61c-10.42,0-18.87,7.51-18.87,16.77a15.13,15.13,0,0,0,1.25,6c-4.62,3.66-7.61,8.1-8.3,13a7.22,7.22,0,0,0-.17,1.55c0,10.67-1.28,21.32-.43,32a48.94,48.94,0,0,0,3.37,15.35c1.58,3.67,5,10.51,9.45,11.22a6.9,6.9,0,0,0,4.21-1.18c1.47-.78,2.69-2.43,4.31-2.83,2.13-.54,3.45,1.16,5.1,2.16a7.52,7.52,0,0,0,7.31-.07c2.53-1.36,4.55-3.93,7.41-4.15,2.56-.2,4.8,1.57,6.89,3.07s4.83,2.82,7.14,1.69c1.88-.91,2.86-3.22,4.84-3.92,2.48-.87,4.91,1.18,7.18,2.51a9.39,9.39,0,0,0,5.19,1.58c7.58-.47,7.38-16.46,7.91-22.1,1.07-11.18,2.06-23.22,2.11-34.49,0-.07,0-.14,0-.21S87.71,57.65,87.71,57.61Z" transform="translate(-5 -7.73)" style="fill: #475577"/>
    <path d="M87.72,57.11a7.13,7.13,0,0,0-.17-1.54C86.62,49,81.44,43.13,73.68,39a11.69,11.69,0,0,0,.14-1.79c0-7.2-6.57-13-14.68-13a15.71,15.71,0,0,0-9.31,3v83.21a27.88,27.88,0,0,1,3.51,2.3c2.1,1.49,4.83,2.82,7.14,1.69,1.88-.91,2.86-3.22,4.84-3.92,2.48-.87,4.91,1.18,7.18,2.51a9.39,9.39,0,0,0,5.19,1.58c7.58-.47,7.38-16.46,7.91-22.1,1.07-11.18,2.06-23.22,2.11-34.49,0-.07,0-.14,0-.21s0-.08,0-.12S87.72,57.28,87.72,57.11Z" transform="translate(-5 -7.73)" style="fill: #3c4866"/>
    <circle cx="32.13" cy="37.4" r="13.58" transform="translate(-16.87 7.41) rotate(-22.5)" style="fill: #fff"/>
    <circle cx="32.13" cy="37.4" r="11.32" transform="translate(-16.87 7.41) rotate(-22.5)" style="fill: #54acd2"/>
    <circle cx="53.38" cy="30.05" r="8.13" style="fill: #fff"/>
    <circle cx="53.38" cy="30.05" r="6.78" style="fill: #54acd2"/>
    <path d="M63.37,34.51A3.36,3.36,0,1,1,60,31.16,3.35,3.35,0,0,1,63.37,34.51Z" transform="translate(-5 -7.73)"/>
    <path d="M63.23,33.26a1.73,1.73,0,1,1-1.73-1.73A1.73,1.73,0,0,1,63.23,33.26Z" transform="translate(-5 -7.73)" style="fill: #fff"/>
    <circle cx="24.32" cy="34.83" r="5.6"/>
    <circle cx="26.79" cy="32.73" r="2.89" style="fill: #fff"/>
    <path d="M69.22,68.54c-6.93,7-16.42,12.23-25.66,9.83-9.84-2.56-19.46-9.1-25.88-16.92a25,25,0,0,1-4.31-6.92c-.28-.73-.45-1.68.15-2.18a2,2,0,0,1,1.71-.18c4.9,1.08,9.33,3.61,14.15,4.93,18,4.92,31.69,1,48-6.84A1.54,1.54,0,0,1,78.5,50c.63.2.73,1,.65,1.69a19.39,19.39,0,0,1-2.54,7A45.57,45.57,0,0,1,69.22,68.54Z" transform="translate(-5 -7.73)" style="fill: #526288"/>
    <path d="M69.22,69.79c-6.93,7-16.42,12.22-25.66,9.82-9.84-2.56-19.46-9.1-25.88-16.91a25.22,25.22,0,0,1-4.31-6.93c-.28-.73-.45-1.67.15-2.18a2,2,0,0,1,1.71-.17c4.9,1.07,9.33,3.6,14.15,4.92,18,4.92,31.69,1,48-6.84a1.59,1.59,0,0,1,1.09-.22c.63.2.73,1,.65,1.7a19.41,19.41,0,0,1-2.54,7A45.62,45.62,0,0,1,69.22,69.79Z" transform="translate(-5 -7.73)" style="fill: #28324e"/>
    <path d="M49.76,75.06a15.77,15.77,0,0,1,7.33,3.2,5.89,5.89,0,0,1,1.5,1.61c1.15,2-.18,4.8-1.19,6.62a9.64,9.64,0,0,1-4.87,4.36,12.43,12.43,0,0,1-7.19.49,10,10,0,0,1-5-3C38,86.11,34.67,82.14,37,78.9a8.19,8.19,0,0,1,3.07-2.42A16,16,0,0,1,49.76,75.06Z" transform="translate(-5 -7.73)" style="fill: #28324e"/>
    <path d="M50.2,71.14a3.34,3.34,0,0,1,.49-.31,9.91,9.91,0,0,1,4.11-.67,13.18,13.18,0,0,1,8.64,3.63,22.39,22.39,0,0,0-2.38,1.47,3.21,3.21,0,0,0-.83.77,3.53,3.53,0,0,0-.45,1.43c-.8,4.94-2,10-7.19,12a12.9,12.9,0,0,1-7.28.49,10.09,10.09,0,0,1-5-3,17.12,17.12,0,0,1-5.1-9c-.2-1.11-.11-1.77-1-2.63A3.56,3.56,0,0,0,31.71,74c1.06-.44,2.17-.77,3.21-1.25.56-.26,1.1-.57,1.67-.8,3.1-1.22,9.62-2,11.48,1.58C47.81,73,49.34,71.75,50.2,71.14Z" transform="translate(-5 -7.73)" style="fill: #9365b8"/>
    <path d="M47.87,75.47l.4,9.23S49.35,72.62,47.87,75.47Z" transform="translate(-5 -7.73)" style="fill: #553982"/>
    <path d="M17.7,55.59s-2.72-1.2-2.83-.33,5.33,7,9.46,8.8,19.45,4.35,31.73,2,16.85-4.46,18.48-6.09,4.78-8.15,3.48-7.6a130.5,130.5,0,0,1-14.24,5.76C55.41,60.91,42.8,64.61,17.7,55.59Z" transform="translate(-5 -7.73)" style="fill: #fff"/>
  </g>
</svg>
