<svg id="Layer_2" data-name="Layer 2" xmlns="http://www.w3.org/2000/svg" width="133.78" height="102.86" viewBox="0 0 133.78 102.86">
  <title>mounsto9</title>
  <g>
    <polygon points="68.72 102.86 82.6 102.86 89.03 74.69 68.72 74.69 68.72 102.86" style="fill: #fac51c"/>
    <path d="M93.87,114.46c-.43-4.5-5.61-8-11.94-8S70.42,110,70,114.46Z" transform="translate(-1.27 -11.6)" style="fill: #fac51c"/>
    <path d="M12.23,88a9.55,9.55,0,0,0-1.38-.76,2.64,2.64,0,0,0-.15-.55,2.86,2.86,0,0,0-1.92-1.54,12.5,12.5,0,0,1-.24-2.39c0-7.26,6-13.19,13.62-13.74l-.45-1.18A19.5,19.5,0,0,0,21,66c-.08-.16-.75-1.19-.51-1a3.09,3.09,0,0,1-1.29-2.1c-10,1.8-17.51,10-17.51,19.86a19.11,19.11,0,0,0,.58,4.62,3.23,3.23,0,0,0-.76,3.31l0,.08a10.29,10.29,0,0,0-.15,1.75c0,2.11.59,3.82,1.31,3.82S4,94.64,4,92.53c0-.06,0-.11,0-.17a5.51,5.51,0,0,0,.57.06c0,.13,0,.26.07.39.46,2.06,1.41,3.61,2.11,3.45s.91-2,.45-4c0-.09,0-.17-.07-.26l.35-.14.22-.1.28.58c1,1.88,2.27,3.13,2.91,2.8s.38-2.12-.59-4a9.46,9.46,0,0,0-.52-.89,4.63,4.63,0,0,0,.41-.49c.2.16.42.31.65.46,1.77,1.15,3.52,1.6,3.92,1S14,89.16,12.23,88Z" transform="translate(-1.27 -11.6)" style="fill: #ff9700"/>
    <path d="M124.09,88a10.1,10.1,0,0,1,1.38-.76,2.64,2.64,0,0,1,.15-.55,2.86,2.86,0,0,1,1.92-1.54,12.5,12.5,0,0,0,.24-2.39c0-7.26-6-13.19-13.62-13.74.16-.39.3-.79.45-1.18.24-.62.46-1.24.75-1.83.08-.16.75-1.19.51-1a3.09,3.09,0,0,0,1.29-2.1c10,1.8,17.51,10,17.51,19.86a19.11,19.11,0,0,1-.58,4.62,3.24,3.24,0,0,1,.77,3.31.3.3,0,0,0,0,.08,10.29,10.29,0,0,1,.15,1.75c0,2.11-.59,3.82-1.31,3.82s-1.31-1.71-1.31-3.82c0-.06,0-.11,0-.17a5.23,5.23,0,0,1-.57.06c0,.13,0,.26-.07.39-.46,2.06-1.4,3.61-2.11,3.45s-.9-2-.45-4c0-.09.05-.17.07-.26l-.35-.14-.22-.1c-.09.19-.17.38-.28.58-1,1.88-2.27,3.13-2.91,2.8s-.38-2.12.59-4a9.46,9.46,0,0,1,.52-.89,6.26,6.26,0,0,1-.41-.49c-.2.16-.42.31-.65.46-1.77,1.15-3.52,1.6-3.92,1S122.32,89.16,124.09,88Z" transform="translate(-1.27 -11.6)" style="fill: #ff9700"/>
    <path d="M118.29,62.91c0,18.29-22.54,30-50.33,30S17.63,81.2,17.63,62.91,40.16,29.81,68,29.81,118.29,44.63,118.29,62.91Z" transform="translate(-1.27 -11.6)" style="fill: #fac51c"/>
    <circle cx="66.69" cy="23.75" r="23.75" style="fill: #fac51c"/>
    <g>
      <circle cx="38.45" cy="36.54" r="1.27" style="fill: #4baf4f"/>
      <path d="M45.82,49.66a1.91,1.91,0,1,1-1.91-1.9A1.91,1.91,0,0,1,45.82,49.66Z" transform="translate(-1.27 -11.6)" style="fill: #4baf4f"/>
      <path d="M44.23,45.6a1,1,0,1,1-.95-1A.95.95,0,0,1,44.23,45.6Z" transform="translate(-1.27 -11.6)" style="fill: #4baf4f"/>
    </g>
    <path d="M98.11,46.85a1.27,1.27,0,1,1-1.27-1.28A1.27,1.27,0,0,1,98.11,46.85Z" transform="translate(-1.27 -11.6)" style="fill: #4baf4f"/>
    <path d="M86.44,96a1.27,1.27,0,1,1-1.27-1.27A1.27,1.27,0,0,1,86.44,96Z" transform="translate(-1.27 -11.6)" style="fill: #4baf4f"/>
    <path d="M73,95a.8.8,0,1,1-1.59,0A.8.8,0,0,1,73,95Z" transform="translate(-1.27 -11.6)" style="fill: #4baf4f"/>
    <path d="M106.39,55.7a1.91,1.91,0,1,1-1.9-1.91A1.91,1.91,0,0,1,106.39,55.7Z" transform="translate(-1.27 -11.6)" style="fill: #4baf4f"/>
    <path d="M23.13,47.88a27.31,27.31,0,0,0-3.79,6.47,3.75,3.75,0,0,0,5.74-3.19A3.76,3.76,0,0,0,23.13,47.88Z" transform="translate(-1.27 -11.6)" style="fill: #4baf4f"/>
    <path d="M107.65,48.2a1,1,0,1,1-1-1A.94.94,0,0,1,107.65,48.2Z" transform="translate(-1.27 -11.6)" style="fill: #4baf4f"/>
    <circle cx="21.14" cy="45.19" r="0.95" style="fill: #4baf4f"/>
    <circle cx="24.92" cy="63.24" r="0.95" style="fill: #4baf4f"/>
    <circle cx="106.31" cy="59.41" r="0.66" style="fill: #4baf4f"/>
    <circle cx="71.36" cy="94.36" r="0.95" style="fill: #4baf4f"/>
    <path d="M60.35,99a1,1,0,1,1-1-.95A1,1,0,0,1,60.35,99Z" transform="translate(-1.27 -11.6)" style="fill: #4baf4f"/>
    <circle cx="67.96" cy="35.35" r="19.11" transform="translate(16.68 81.77) rotate(-76.72)" style="fill: #fff"/>
    <circle cx="66.69" cy="23.75" r="15.93" style="fill: #4baf4f"/>
    <circle cx="66.69" cy="23.75" r="10.12"/>
    <circle cx="73.77" cy="26.36" r="7.69" transform="translate(-5.74 18.64) rotate(-22.5)" style="fill: #fff"/>
    <path d="M104.83,67.45c.23,8.61-16.62,15.78-37.63,16S29,76.89,28.71,68.28c-.1-3.69,4.59-8.13,9.79-9.85,4.6-1.51,9.72-.45,14.47.09a67,67,0,0,0,19.91-.21c6.63-1.11,15.9-3.46,22.42-1.42C101.13,58.72,104.72,63.53,104.83,67.45Z" transform="translate(-1.27 -11.6)" style="fill: #ff9700"/>
    <path d="M105.32,70.08c0,8.61-17,15.59-38.06,15.59s-38.07-7-38.07-15.59c0-3.69,4.81-8.08,10.06-9.74,4.64-1.46,9.73-.35,14.46.24a67.17,67.17,0,0,0,19.92,0c6.65-1,16-3.28,22.46-1.17C101.86,61.31,105.32,66.16,105.32,70.08Z" transform="translate(-1.27 -11.6)" style="fill: #75706b"/>
    <path d="M71.07,84.83c-9.49.43-20.27-.59-23-3-2.28-2,2.7-3.61,7.8-3.6,4,0,7.39.72,11.33.66a62.48,62.48,0,0,0,7.64-.7,30,30,0,0,1,7.4-.49c2.57.26,4.28,1.23,4.53,2.21C87.5,82.79,79.83,84.43,71.07,84.83Z" transform="translate(-1.27 -11.6)" style="fill: #4baf4f"/>
    <path d="M39.83,69.85c6.64-2,14,.18,20.82-.06,8.79-.32,16.4-4.14,25.14-4.34,3.62-.08,7.36-.1,10.72,1.27,1.21.5,7.66,4.51,6.16,6.24A5.57,5.57,0,0,0,104,69.07c-.13-3.23-2.58-6.17-5.78-7.72C92.67,58.69,84,59.63,78,60.61A84.4,84.4,0,0,1,50.69,61c-5.86-.89-11.33-.42-16.14,2.85-4.22,2.87-6.23,8.47-1.09,11.79a4.71,4.71,0,0,1,.92-2.07A10.72,10.72,0,0,1,39.83,69.85Z" transform="translate(-1.27 -11.6)" style="fill: #fff"/>
    <polygon points="64.66 102.86 50.78 102.86 44.35 74.69 64.66 74.69 64.66 102.86" style="fill: #fac51c"/>
    <polygon points="64.66 102.86 50.78 102.86 44.35 74.69 64.66 74.69 64.66 102.86" style="fill: #fac51c"/>
    <path d="M68,89.61c-27.35,0-49.58-10.72-50.3-27.58,0,.3,0,.59,0,.88,0,18.29,22.53,30,50.33,30s50.33-11.66,50.33-29.95c0-.29,0-.58,0-.88C117.54,78.89,95.31,89.61,68,89.61Z" transform="translate(-1.27 -11.6)" style="fill: #ff9700"/>
    <path d="M67.26,88.93c-12,0-22.79-1.88-30.44-4.87,7,3.78,18,6.22,30.44,6.22s23.48-2.44,30.43-6.22C90,87.05,79.24,88.93,67.26,88.93Z" transform="translate(-1.27 -11.6)" style="fill: #fd5621"/>
    <path d="M65.93,114.46c-.43-4.5-5.61-8-11.94-8s-11.51,3.55-11.94,8Z" transform="translate(-1.27 -11.6)" style="fill: #fac51c"/>
    <path d="M81.5,103.17a1.91,1.91,0,1,1-1.91-1.91A1.9,1.9,0,0,1,81.5,103.17Z" transform="translate(-1.27 -11.6)" style="fill: #4baf4f"/>
    <path d="M52,95.27a1.21,1.21,0,1,1-1.21-1.2A1.21,1.21,0,0,1,52,95.27Z" transform="translate(-1.27 -11.6)" style="fill: #4baf4f"/>
    <path d="M56,106.65a1.91,1.91,0,1,1-1.91-1.9A1.92,1.92,0,0,1,56,106.65Z" transform="translate(-1.27 -11.6)" style="fill: #4baf4f"/>
    <path d="M65.93,97.16a3.55,3.55,0,0,0-.73-.08,3.77,3.77,0,0,0,0,7.53,4.4,4.4,0,0,0,.73-.07Z" transform="translate(-1.27 -11.6)" style="fill: #4baf4f"/>
  </g>
</svg>
