<svg id="Layer_2" data-name="Layer 2" xmlns="http://www.w3.org/2000/svg" width="83.77" height="115.49" viewBox="0 0 83.77 115.49">
  <title>mounsto1</title>
  <g>
    <g>
      <path d="M27.11,67v0A.18.18,0,0,1,27.11,67Z" transform="translate(-14.04 -6.64)" style="fill: #28324e"/>
      <path d="M27.27,61.31a17.19,17.19,0,0,0,.26-4.44c-.06-1.21-.8-12.09-7.07-13.52,0,0-1.27.76-3,4.66s-1.72,5.91-1.72,5.91,4.55-1.56,7.77-.48a16.83,16.83,0,0,0-1.23,1.26,10.55,10.55,0,0,0-2.31,3.49S24,58.07,25.66,60l.07.08A7.82,7.82,0,0,0,24,61.48a7.33,7.33,0,0,0-1.7,2.35s2.82,0,3.92,1.41c.9,1.13.89,1.65.86,1.79C27.23,66.62,28.14,63.45,27.27,61.31Z" transform="translate(-14.04 -6.64)" style="fill: #28324e"/>
    </g>
    <path d="M64.62,93.15A15.16,15.16,0,0,0,57,102.8c-.72,3.18.48,6.2,1.63,9.09s1.19,8.32,4.42,9.62a3,3,0,0,0,2.49,0A4.41,4.41,0,0,0,67,120.09c3.24-4.42,4.64-10.65,5.76-15.93.75-3.53,1.62-7.32-.95-10.38A4.79,4.79,0,0,0,68,92a6.58,6.58,0,0,0-2.12.55A12.88,12.88,0,0,0,64.62,93.15Z" transform="translate(-14.04 -6.64)" style="fill: #3a9b56"/>
    <path d="M97.8,85.93c.15-.76-1.37-1.71-3.39-2.13a10.08,10.08,0,0,0-1.64-.19,5.32,5.32,0,0,0-1.41-1.75,3.72,3.72,0,0,0,.37-.75c1.2-.11,2.11-.7,2.1-1.4s-1.12-1.38-2.49-1.36a4,4,0,0,0-1,.13,4.56,4.56,0,0,0-3.19,1,5.75,5.75,0,0,0-1.11,1.09C84,79,79,74.68,78.55,69.29A23.83,23.83,0,0,1,81.09,56.4a4.87,4.87,0,0,0,.78-2.06c.32-2.26-.91-4.31-2.75-4.56s-3.34,1.14-3.81,3.16l0,0a30.46,30.46,0,0,0-3.47,17c.79,8.84,8.6,15,10.91,16.6a5.32,5.32,0,0,0,2.93,4.26,3.42,3.42,0,0,0,.66,1.18c.81,1,2,1.36,2.54.87a1.42,1.42,0,0,0,.2-1.61l.25-.06c.13.18.27.36.41.53,1.3,1.55,2.82,2.4,3.41,1.91s0-2.15-1.27-3.69a.69.69,0,0,0-.11-.13,3.83,3.83,0,0,0,.28-.29l.38.24c1.73,1,3.46,1.32,3.85.65s-.7-2-2.43-3c-.2-.12-.4-.22-.6-.32a2.38,2.38,0,0,0,0-.26c0-.11,0-.21,0-.31.18,0,.36.09.54.12C95.87,87,97.64,86.68,97.8,85.93Z" transform="translate(-14.04 -6.64)" style="fill: #3a9b56"/>
    <path d="M59.18,47.71l18.49-3a23.82,23.82,0,0,0-1.31-2.69c-.34-.6,4.89-6.36,5-7.62a18.83,18.83,0,0,0,0-2.24,14.33,14.33,0,0,0-1-4.27,11.25,11.25,0,0,0-10.8-7A11.83,11.83,0,0,0,60.75,25a16.53,16.53,0,0,0-33,.92c0,.35,0,.7.06,1l-1.23,0C20.84,27.13,16,35.4,14,39.75a16.94,16.94,0,0,1,10.38,8.78c3.17,6.16,2.07,12.61,2.61,19.21a77.22,77.22,0,0,0,3.57,18c2.88,8.71,7.84,18.31,16.28,22.78a16.88,16.88,0,0,0,8.22,2c5.82-.12,10.82-3.56,14.48-7.87a44.76,44.76,0,0,0,8-14.46c2-5.71,3.84-11.11,4.46-17.2.59-5.7,1.11-11.48.49-17.2-.2-1.86-.26-5.82-1.8-7s-4.13-.24-5.73-.14q-3.49.2-7,.44Z" transform="translate(-14.04 -6.64)" style="fill: #41a85f"/>
    <path d="M66.33,46.57a108.18,108.18,0,0,0-4.66-22.51,12,12,0,0,0-.92,1,16.53,16.53,0,0,0-33,.92c0,.35,0,.7.06,1l-1.23,0C20.84,27.13,16,35.4,14,39.75a16.94,16.94,0,0,1,10.38,8.78c3.17,6.16,2.07,12.61,2.61,19.21a77.22,77.22,0,0,0,3.57,18c2.88,8.71,7.84,18.31,16.28,22.78a17.49,17.49,0,0,0,6.33,2C62.08,96.22,67.32,77,66.89,55.85q-.09-4.38-.5-8.63l-7.21.49Z" transform="translate(-14.04 -6.64)" style="fill: #61bd6d"/>
    <circle cx="44.59" cy="26.61" r="14.45" transform="translate(-14.01 46.64) rotate(-61.72)" style="fill: #28324e"/>
    <path d="M57.47,24.15a12.64,12.64,0,1,1-15.74-8.47A12.64,12.64,0,0,1,57.47,24.15Z" transform="translate(-14.04 -6.64)" style="fill: #fff"/>
    <circle cx="45.84" cy="29.13" r="10.54" transform="translate(-15.57 49.06) rotate(-61.72)" style="fill: #fdc006"/>
    <path d="M55,24a5,5,0,1,1-6.27-3.38A5,5,0,0,1,55,24Z" transform="translate(-14.04 -6.64)"/>
    <path d="M48.44,22.78a3,3,0,1,1-1.17-3.89A2.88,2.88,0,0,1,48.44,22.78Z" transform="translate(-14.04 -6.64)" style="fill: #fff"/>
    <circle cx="70.24" cy="31.5" r="8.88" transform="translate(-0.19 77.26) rotate(-67.05)" style="fill: #28324e"/>
    <path d="M77.62,30.33a7.68,7.68,0,1,1-9.57-5.15A7.69,7.69,0,0,1,77.62,30.33Z" transform="translate(-14.04 -6.64)" style="fill: #fff"/>
    <path d="M76.4,30.7a6.4,6.4,0,1,1-8-4.3A6.41,6.41,0,0,1,76.4,30.7Z" transform="translate(-14.04 -6.64)" style="fill: #fdc006"/>
    <g>
      <path d="M32.79,46.11a1.45,1.45,0,1,1-1.48-1.42A1.45,1.45,0,0,1,32.79,46.11Z" transform="translate(-14.04 -6.64)" style="fill: #fac51c"/>
      <circle cx="22.12" cy="41.14" r="2.18" style="fill: #fac51c"/>
      <path d="M36.43,43.13a1.09,1.09,0,1,1-1.11-1.07A1.09,1.09,0,0,1,36.43,43.13Z" transform="translate(-14.04 -6.64)" style="fill: #fac51c"/>
    </g>
    <path d="M77.67,44.75c.07,0-25.27,4.53-28.4,5.93-1.43.64-5.59,3.81-6.18.66-1.14-6.08,8-8.1,12.14-8.34a77,77,0,0,1,8.86-.08c2.11.14,4.21.43,6.31.72C71.15,43.75,73.67,44,77.67,44.75Z" transform="translate(-14.04 -6.64)" style="fill: #f7da64"/>
    <path d="M77.67,44.75S52.8,49.66,49.76,51c-1.4.61-5.46,3.66-6,.63-1.1-5.83,7.83-7.77,11.84-8a73.26,73.26,0,0,1,8.64-.08c2.06.12,4.1.4,6.15.69C71.08,44.34,77.74,44.49,77.67,44.75Z" transform="translate(-14.04 -6.64)" style="fill: #28324e"/>
    <path d="M41.84,54.19a6,6,0,0,1-.94-1.62,5.81,5.81,0,0,1-.37-1.49,3.45,3.45,0,0,1,.07-1.54A3.25,3.25,0,0,0,40,51.22,4.65,4.65,0,0,0,41.36,55a4.4,4.4,0,0,0,4.17,1A4.46,4.46,0,0,1,41.84,54.19Z" transform="translate(-14.04 -6.64)" style="fill: #475577"/>
    <path d="M58.64,46.47v0c-.66-2.51-9.13.33-10.69.88a4.08,4.08,0,0,0-3,3,1.34,1.34,0,0,0,.44,1.36,1.41,1.41,0,0,0,1.35,0,8.18,8.18,0,0,0,1.16-.79c3-2.14,7.18-1.71,10.28-3.55A.9.9,0,0,0,58.64,46.47Z" transform="translate(-14.04 -6.64)" style="fill: #9365b8"/>
    <path d="M53.78,6.64c.7,1.35,1.33,2.73,2,4.1s1.28,2.75,1.91,4.13c1.26,2.77,2.47,5.55,3.66,8.34L60.78,23l2.92-1.06c1-.34,2-.69,2.93-1s2-.65,3-1,2-.61,3-.88c-.93.46-1.89.86-2.83,1.29s-1.9.81-2.86,1.2S65,22.32,64,22.7s-1.93.74-2.89,1.11l-.4.15-.17-.39c-1.19-2.8-2.37-5.6-3.49-8.42-.57-1.41-1.13-2.82-1.67-4.24S54.28,8.07,53.78,6.64Z" transform="translate(-14.04 -6.64)" style="fill: #28324e"/>
    <path d="M32.81,102.69c.53-.56-.26-2.17-1.76-3.59a9.53,9.53,0,0,0-1.29-1,5.28,5.28,0,0,0-.27-2.23,4.49,4.49,0,0,0,.71-.44c1.07.53,2.16.51,2.52-.09s-.23-1.76-1.4-2.47a4.49,4.49,0,0,0-.9-.41,4.55,4.55,0,0,0-3.23-.84,5.54,5.54,0,0,0-1.52.33c-.94-2.44-2.87-8.69-.44-13.52a23.89,23.89,0,0,1,9-9.61,4.68,4.68,0,0,0,1.76-1.34c1.47-1.75,1.5-4.14.07-5.33s-3.44-.78-4.91.68v0a30.34,30.34,0,0,0-11.9,12.59c-4,7.92-.59,17.26.51,19.85a5.34,5.34,0,0,0,.25,5.17,3.52,3.52,0,0,0-.06,1.35c.17,1.26.94,2.19,1.7,2.08.5-.07.87-.57,1-1.26l.24.08c0,.22,0,.44.07.67.28,2,1.13,3.52,1.89,3.42s1.15-1.82.87-3.81l0-.16.39-.1.2.4c.93,1.78,2.24,2.94,2.92,2.58s.48-2.09-.45-3.87c-.11-.21-.22-.4-.34-.59.06-.07.13-.13.18-.2a2.35,2.35,0,0,0,.19-.25l.39.4C30.64,102.54,32.28,103.24,32.81,102.69Z" transform="translate(-14.04 -6.64)" style="fill: #3a9b56"/>
    <path d="M46.64,67.73c-3.5,6.83-4.26,15.47-4,23.21.13,4.33,2.45,8,4.68,11.55,1.92,3.09,2.84,6.34,6.79,6.52,8.33-14.1,13.22-32.76,12.81-53.16l0-.7a34,34,0,0,0-7.28,1.5A21.4,21.4,0,0,0,46.64,67.73Z" transform="translate(-14.04 -6.64)" style="fill: #89c76b"/>
    <path d="M45,93.55a15.17,15.17,0,0,1,8,9.33c.85,3.15-.22,6.21-1.26,9.15s-.84,8.36-4,9.79a3,3,0,0,1-2.49.07,4.4,4.4,0,0,1-1.52-1.33c-3.41-4.28-5.07-10.45-6.4-15.68-.9-3.5-1.92-7.24.53-10.41a4.76,4.76,0,0,1,3.72-1.92,6.62,6.62,0,0,1,2.14.46C44.18,93.17,44.6,93.35,45,93.55Z" transform="translate(-14.04 -6.64)" style="fill: #61bd6d"/>
    <path d="M75.46,29.26a3.53,3.53,0,1,1-4.4-2.37A3.53,3.53,0,0,1,75.46,29.26Z" transform="translate(-14.04 -6.64)"/>
    <ellipse cx="69.06" cy="27.36" rx="1.93" ry="2.09" transform="matrix(0.51, -0.86, 0.86, 0.51, -3.53, 66.43)" style="fill: #fff"/>
    <path d="M78.71,58.75c-2.63-2.86-6.77-4-11.85-3.6l0,.7c.41,20.4-4.48,39.06-12.81,53.16.21,0,.42,0,.64,0A19.83,19.83,0,0,0,66,104.67c6.26-5.71,9.53-14.12,11.76-22.1C79.58,76,84,64.53,78.71,58.75Z" transform="translate(-14.04 -6.64)" style="fill: #61bd6d"/>
  </g>
</svg>
