<svg id="Layer_2" data-name="Layer 2" xmlns="http://www.w3.org/2000/svg" width="106.63" height="110.14" viewBox="0 0 106.63 110.14">
  <title>mounsto5</title>
  <g>
    <path d="M39.89,82.3S30.45,87.42,25,95.39s-7,11.5-3.32,9.72,16.06-5.34,16.06-5.34S50.16,87.59,39.89,82.3Z" transform="translate(-3.55 -12.82)" style="fill: #2a72ac"/>
    <path d="M72.84,82.3s9.44,5.12,14.91,13.09,7,11.5,3.32,9.72S75,99.77,75,99.77,62.58,87.59,72.84,82.3Z" transform="translate(-3.55 -12.82)" style="fill: #2a72ac"/>
    <polygon points="85.88 0.24 106.63 25.69 81.69 11.52 85.88 0.24" style="fill: #2a72ac"/>
    <polygon points="20.75 0 0 25.44 24.94 11.28 20.75 0" style="fill: #2a72ac"/>
    <path d="M81,59a17.24,17.24,0,0,0,5.58-30.39l.39-2.11c.69-3.75,4.8-15.79,2.18-13s-7,7.3-11.59,11.72c-.43,0-.87-.06-1.31-.06a17.25,17.25,0,0,0-17.05,14.7,7.18,7.18,0,0,1-2.81.78A6.44,6.44,0,0,1,53.88,40,17.24,17.24,0,0,0,36.81,25.16c-.27,0-.54,0-.8,0-4.37-4.4-8.41-8.79-11.07-11.7s.22,8.55.73,12.27l.43,3.13a17.25,17.25,0,0,0,4.08,29.46l1.58,11.42c-2.5,2.24-3.94,4.87-3.94,7.69,0,3.61,2.38,6.93,6.32,9.49l4.53,32.7a3.83,3.83,0,0,0,3.79,3.3,2.82,2.82,0,0,0,2.82-2.83v-7.58a4.38,4.38,0,0,1,4.37-4.36h14A4.37,4.37,0,0,1,68,112.55v7.75A2.67,2.67,0,0,0,70.69,123a3.83,3.83,0,0,0,3.81-3.48c.58-6.51,1.91-21.06,3.2-34,2.72-2.31,4.3-5,4.3-8A9.72,9.72,0,0,0,79.22,71c.47-4.1.87-7.29,1.17-8.89Z" transform="translate(-3.55 -12.82)" style="fill: #2c82c9"/>
    <path d="M81,59a17.24,17.24,0,0,0,5.58-30.39l.39-2.11c.69-3.75,4.8-15.79,2.18-13s-7,7.3-11.59,11.72c-.43,0-.87-.06-1.31-.06a17.25,17.25,0,0,0-17.05,14.7,7.18,7.18,0,0,1-2.81.78,4.13,4.13,0,0,1-.76-.09v67.64h8.08A4.37,4.37,0,0,1,68,112.55v7.75A2.67,2.67,0,0,0,70.69,123a3.83,3.83,0,0,0,3.81-3.48c.58-6.51,1.91-21.06,3.2-34,2.72-2.31,4.3-5,4.3-8A9.72,9.72,0,0,0,79.22,71c.47-4.1.87-7.29,1.17-8.89Z" transform="translate(-3.55 -12.82)" style="fill: #2a72ac"/>
    <ellipse cx="72.94" cy="33.84" rx="11.41" ry="11.56" style="fill: #2969b0"/>
    <circle cx="76.5" cy="42.42" r="13.69" transform="translate(14.08 94.3) rotate(-76.72)" style="fill: #fff"/>
    <path d="M81.39,42.27a4.9,4.9,0,1,1-4.89-4.9A4.89,4.89,0,0,1,81.39,42.27Z" transform="translate(-3.55 -12.82)" style="fill: #2095f2"/>
    <path d="M79.61,42.27a3.11,3.11,0,1,1-3.11-3.11A3.11,3.11,0,0,1,79.61,42.27Z" transform="translate(-3.55 -12.82)"/>
    <path d="M80.65,39.51a2.37,2.37,0,1,1-2.37-2.37A2.37,2.37,0,0,1,80.65,39.51Z" transform="translate(-3.55 -12.82)" style="fill: #fff"/>
    <ellipse cx="33.26" cy="33.84" rx="11.41" ry="11.56" style="fill: #2969b0"/>
    <circle cx="36.81" cy="42.42" r="13.69" transform="translate(-16.48 55.68) rotate(-76.72)" style="fill: #fff"/>
    <path d="M41.71,42.27a4.9,4.9,0,1,1-4.9-4.9A4.89,4.89,0,0,1,41.71,42.27Z" transform="translate(-3.55 -12.82)" style="fill: #2095f2"/>
    <path d="M39.92,42.27a3.11,3.11,0,1,1-3.11-3.11A3.11,3.11,0,0,1,39.92,42.27Z" transform="translate(-3.55 -12.82)"/>
    <path d="M41,39.51a2.37,2.37,0,1,1-2.36-2.37A2.36,2.36,0,0,1,41,39.51Z" transform="translate(-3.55 -12.82)" style="fill: #fff"/>
    <path d="M78.94,74.41a7.3,7.3,0,0,0-3.78-4.1,7.64,7.64,0,0,1,3.14,4.36,7.53,7.53,0,0,1-.3,5.68,4.05,4.05,0,0,0,.44-.52A5.69,5.69,0,0,0,78.94,74.41Z" transform="translate(-3.55 -12.82)" style="fill: #2969b0"/>
    <path d="M63.46,72.84c-4.59-1.78-9.39-1.74-14.43-.61-2.46.54-11.16,7.15-11.67,1.83-.23-2.52,2.8-3.75,4.71-4.47a40.64,40.64,0,0,1,17.35-2.42,37,37,0,0,1,9.75,2.33c1.55.63,3.47,1.37,4,3.14C74.56,77,69.27,76,67.29,74.77A20.84,20.84,0,0,0,63.46,72.84Z" transform="translate(-3.55 -12.82)" style="fill: #2969b0"/>
    <path d="M63.46,73.89c-4.59-1.78-9.39-1.74-14.43-.61-2.46.54-11.16,7.15-11.67,1.83-.23-2.52,2.8-3.75,4.71-4.47a40.64,40.64,0,0,1,17.35-2.42,37,37,0,0,1,9.75,2.33c1.55.63,3.47,1.37,4,3.14,1.36,4.37-3.93,3.39-5.91,2.13A20.84,20.84,0,0,0,63.46,73.89Z" transform="translate(-3.55 -12.82)" style="fill: #fff"/>
    <path d="M32.11,77.86c-.32-3.75,1.65-6,4.09-7.55-2.43,1.18-5.16,3.27-4.77,7a5.75,5.75,0,0,0,1.37,3.29A7.65,7.65,0,0,1,32.11,77.86Z" transform="translate(-3.55 -12.82)" style="fill: #2a72ac"/>
    <path d="M64.3,77.25c-5.07-1.77-10.36-1.74-15.93-.61-2.71.55-12.31,7.15-12.87,1.83C35.24,76,38.59,74.72,40.69,74a49.55,49.55,0,0,1,19.15-2.42A45,45,0,0,1,70.6,73.91c1.71.63,3.82,1.37,4.44,3.15,1.5,4.36-4.34,3.39-6.52,2.13A25.27,25.27,0,0,0,64.3,77.25Z" transform="translate(-3.55 -12.82)" style="fill: #87abda"/>
    <path d="M64.3,75.71C59.23,73.94,53.94,74,48.37,75.1c-2.71.55-12.31,7.16-12.87,1.84-.26-2.52,3.09-3.76,5.19-4.47a49.18,49.18,0,0,1,19.15-2.42A44.53,44.53,0,0,1,70.6,72.38c1.71.63,3.82,1.37,4.44,3.14,1.5,4.37-4.34,3.39-6.52,2.13A25.27,25.27,0,0,0,64.3,75.71Z" transform="translate(-3.55 -12.82)"/>
    <path d="M51.71,77.58c.13.28.24.57.35.86a5.41,5.41,0,0,0,.44,1,1.41,1.41,0,0,0,.88.67,1.27,1.27,0,0,0,1.29-.67c.36-.63.15-1.22.14-1.88,0-1.89.15-3.78.09-5.67,0-.82.16-2.17-.48-2.8-.37-.36-1.22-.28-1.67-.26-1.66.07-3.31.07-3.42,2.18a6.68,6.68,0,0,0,.52,2.52C50.34,75,51.12,76.24,51.71,77.58Z" transform="translate(-3.55 -12.82)" style="fill: #fff"/>
    <path d="M58.78,77.58c-.13.28-.24.57-.35.86a4.86,4.86,0,0,1-.44,1,1.38,1.38,0,0,1-.88.67,1.28,1.28,0,0,1-1.29-.67c-.36-.63-.15-1.22-.14-1.88,0-1.89-.15-3.78-.09-5.67,0-.82-.16-2.17.48-2.8.37-.36,1.22-.28,1.67-.26,1.67.07,3.32.07,3.42,2.18a6.68,6.68,0,0,1-.52,2.52C60.15,75,59.38,76.24,58.78,77.58Z" transform="translate(-3.55 -12.82)" style="fill: #fff"/>
    <rect x="37.63" y="70.64" width="30.93" height="21.79" rx="8.93" ry="8.93" style="fill: #5a91cd"/>
  </g>
</svg>
