<svg id="Layer_2" data-name="Layer 2" xmlns="http://www.w3.org/2000/svg" width="86.94" height="102" viewBox="0 0 86.94 102">
  <title>mounsto7</title>
  <g>
    <path d="M70.31,102.75c1.9.5,4.32,0,5.17-1.48,1-1.71-.16-6-2.26-6.44-1.78-.41-4.84,3-5.28,4.35C67.33,101.08,68.61,102.3,70.31,102.75Z" transform="translate(-9.98 -12.53)" style="fill: #553982"/>
    <path d="M36,102.75c-1.91.5-4.32,0-5.17-1.48-.95-1.71.15-6,2.26-6.44,1.77-.41,4.83,3,5.28,4.35C39,101.08,37.72,102.3,36,102.75Z" transform="translate(-9.98 -12.53)" style="fill: #553982"/>
    <path d="M39.62,99.44c-2-1.71-12-10.52-12.36-15.52-.37-5.25,10.08-12.5,12.18-13.9l1.77,2.64c-5.31,3.55-10.94,8.77-10.78,11,.2,2.71,6.7,9.43,11.26,13.34Z" transform="translate(-9.98 -12.53)" style="fill: #231f20"/>
    <path d="M68.9,99.44,66.83,97C71.39,93.12,77.9,86.4,78.09,83.69c.18-2.5-6.32-8.06-10.78-11L69.08,70c2.1,1.4,12.56,8.65,12.18,13.9C80.9,88.92,70.9,97.73,68.9,99.44Z" transform="translate(-9.98 -12.53)" style="fill: #231f20"/>
    <ellipse cx="44.39" cy="40.93" rx="21.49" ry="21.87" style="fill: #9365b8"/>
    <path d="M72.46,111.42a4.73,4.73,0,0,0-4.35,2.26,135.26,135.26,0,0,0,3.06-29.54c0-29-7.84-52.48-17.5-52.48S36.18,55.15,36.18,84.14a135.12,135.12,0,0,0,3.08,29.69c-.56-1.39-2.32-2.4-4.42-2.4-2.44,0-4.44,1.37-4.6,3.1h9.2s0,0,0,0c3.17-5.85,8.37-9.67,14.24-9.67s11,3.79,14.21,9.62c0,0,0,.06,0,.08h9.2C76.9,112.79,74.9,111.42,72.46,111.42Z" transform="translate(-9.98 -12.53)" style="fill: #9365b8"/>
    <ellipse cx="43.69" cy="28.54" rx="43.07" ry="28.54" style="fill: #9365b8"/>
    <path d="M66.2,68.41a14.2,14.2,0,0,1-24.91-1A90.78,90.78,0,0,0,40,83.22c0,5.76-1.22,14.67,6,16.37,1.94.46,5.41-1.93,7.73-1.93,3.38,0,7.1,3.28,10.34,1.72a4.14,4.14,0,0,0,1-.72c3.27-3.09,2.33-11.71,2.33-15.44A91.23,91.23,0,0,0,66.2,68.41Z" transform="translate(-9.98 -12.53)" style="fill: #b293c4"/>
    <circle cx="69.59" cy="19.04" r="17.35" style="fill: #9365b8"/>
    <circle cx="17.49" cy="19.04" r="17.35" style="fill: #9365b8"/>
    <path d="M57,64.14A3,3,0,1,1,54,61.68,2.73,2.73,0,0,1,57,64.14Z" transform="translate(-9.98 -12.53)" style="fill: #b293c4"/>
    <path d="M56.47,64.93A2.46,2.46,0,1,1,54,62.48,2.46,2.46,0,0,1,56.47,64.93Z" transform="translate(-9.98 -12.53)" style="fill: #28324e"/>
    <path d="M37.26,17.72,14.16,32.84a15.94,15.94,0,1,0,23.1-15.12Z" transform="translate(-9.98 -12.53)" style="fill: #fff"/>
    <path d="M34.61,19.45,16.81,31.11c0,.28,0,.55,0,.83A13.3,13.3,0,1,0,34.61,19.45Z" transform="translate(-9.98 -12.53)" style="fill: #fba026"/>
    <path d="M30.07,45.23a13.25,13.25,0,0,0,8.28-2.9,8.45,8.45,0,0,0-16.57,0A13.25,13.25,0,0,0,30.07,45.23Z" transform="translate(-9.98 -12.53)"/>
    <g>
      <path d="M10.41,34.79,44,13.31Z" transform="translate(-9.98 -12.53)"/>
      <polygon points="0 21.59 34.02 0.78 0.86 22.93 0 21.59"/>
    </g>
    <path d="M37.41,36.44a2.76,2.76,0,1,1-2.76-2.75A2.77,2.77,0,0,1,37.41,36.44Z" transform="translate(-9.98 -12.53)" style="fill: #fff"/>
    <path d="M69.64,17.72a15.94,15.94,0,1,0,23.1,15.12Z" transform="translate(-9.98 -12.53)" style="fill: #fff"/>
    <path d="M72.29,19.45A13.29,13.29,0,1,0,90.13,31.94c0-.28,0-.55,0-.83Z" transform="translate(-9.98 -12.53)" style="fill: #fba026"/>
    <path d="M76.84,45.23a13.27,13.27,0,0,1-8.29-2.9,8.45,8.45,0,0,1,16.57,0A13.25,13.25,0,0,1,76.84,45.23Z" transform="translate(-9.98 -12.53)"/>
    <g>
      <path d="M96.49,34.79,62.9,13.31Z" transform="translate(-9.98 -12.53)"/>
      <polygon points="86.94 21.59 52.92 0.78 86.09 22.93 86.94 21.59"/>
    </g>
    <circle cx="72.34" cy="23.91" r="2.75" style="fill: #fff"/>
  </g>
</svg>
