<svg id="Layer_2" data-name="Layer 2" xmlns="http://www.w3.org/2000/svg" width="51.66" height="108.28" viewBox="0 0 51.66 108.28">
  <title>mounsto3</title>
  <g>
    <path d="M54.48,47.82l.14-.21-3-3c-1.45.33-2.92-1.56-1.56-2.77a35.08,35.08,0,0,1,4.06-3.45,12,12,0,0,1,2.64-1.18c-.18-6.32-1.19-12.38-4.62-12.44-1.71,0-3.27,1.5-4.83,2.85-4.92,4.26-10.17,7.15-15.47,7v0H31.6l-.2,0s0,0,0,0c-5.29,0-10.44-3.08-15.2-7.51-1.51-1.4-3-3-4.72-3-3.35-.06-4.6,5.66-5,11.8l9.19,6.72-7,6.15-2.34-.18v.61a5.82,5.82,0,0,0-.19,1.39l-1,55.17A6,6,0,0,0,11,111.81l4.88.08c2,.12,3.92.24,5.88.32.5,0,.9,0,1.23,0l.14-8a6,6,0,0,1,6.08-5.87l2.55,0a6,6,0,0,1,5.87,6.08l-.14,7.81,11.5.2a6,6,0,0,0,6.08-5.87l.84-47.11c.19-3.11.32-6.18.46-9.3C55,50.51,53.49,49.17,54.48,47.82Z" transform="translate(-5.11 -4.21)" style="fill: #d14841"/>
    <path d="M54.07,38.4a12,12,0,0,1,2.64-1.18c-.18-6.32-1.19-12.38-4.62-12.44-1.71,0-3.27,1.5-4.83,2.85-4.81,4.16-9.93,7-15.1,7V98.42a6,6,0,0,1,5.45,6l-.14,7.81,11.5.2a6,6,0,0,0,6.08-5.87l.84-47.11c.19-3.11.32-6.18.46-9.3-1.31.31-2.86-1-1.87-2.38l.14-.21-3-3c-1.45.33-2.92-1.56-1.56-2.77A35.08,35.08,0,0,1,54.07,38.4Z" transform="translate(-5.11 -4.21)" style="fill: #bb4039"/>
    <path d="M38.17,32.35c-2.57,1.82-5.71,1.58-8.51,1.48-3.1-.11-10-3.31-8.29-9.41.46-1.63,1.58-2.72,2.4-4.07s1.33-3.47.46-4.73a31.4,31.4,0,0,1,4,3.07,6.49,6.49,0,0,1,1.68,5.45c1.6-.56,2.42-3.08,2.43-5.32s-.53-4.42-.59-6.66a14.48,14.48,0,0,1,2.05-7.95c-.78,2.91,0,6.1.76,9a9.47,9.47,0,0,0,.84,2.33c.47.8,1.15,1.34,1.66,2.09,1,1.49,1.21,3.61,1.39,5.61a5.05,5.05,0,0,0,1.3-2.93A6.77,6.77,0,0,1,41.55,24,9,9,0,0,1,38.17,32.35Z" transform="translate(-5.11 -4.21)" style="fill: #f99c32"/>
    <path d="M36.2,29.6c-1.82,1.27-4,1.09-6,1-2.2-.08-7.09-2.29-5.88-6.5A10.81,10.81,0,0,1,26,21.32c.58-.93.94-2.39.32-3.27a22.05,22.05,0,0,1,2.83,2.13,4.38,4.38,0,0,1,1.19,3.76c1.13-.39,1.71-2.13,1.72-3.68s-.37-3.05-.42-4.59a9.75,9.75,0,0,1,1.45-5.49c-.55,2,0,4.21.54,6.21a6.62,6.62,0,0,0,.6,1.6c.33.56.81.93,1.17,1.45a8.4,8.4,0,0,1,1,3.87,3.42,3.42,0,0,0,.92-2,4.59,4.59,0,0,1,1.28,2.58A6.12,6.12,0,0,1,36.2,29.6Z" transform="translate(-5.11 -4.21)" style="fill: #fdc006"/>
    <g>
      <path d="M11.54,40.07a10,10,0,1,0,14.59,9s0-.08,0-.12Z" transform="translate(-5.11 -4.21)" style="fill: #fff"/>
      <path d="M13.27,41.13a8.33,8.33,0,1,0,11.2,8A10.57,10.57,0,0,0,24.4,48Z" transform="translate(-5.11 -4.21)" style="fill: #fdc006"/>
      <circle cx="13.72" cy="47.2" r="5.29" transform="translate(-39.39 32.45) rotate(-61.4)"/>
      <path d="M18,43.93a2.36,2.36,0,0,0-.24,1,2.5,2.5,0,0,0,4.48,1.57Z" transform="translate(-5.11 -4.21)" style="fill: #fff"/>
      <polygon points="1.77 31.79 22.46 45.79 1.22 32.63 1.77 31.79"/>
    </g>
    <g>
      <path d="M51.44,40.78,36.55,49.19s0,.08,0,.12a10,10,0,1,0,14.9-8.53Z" transform="translate(-5.11 -4.21)" style="fill: #fff"/>
      <path d="M49.67,41.78,38.31,48.19a8.78,8.78,0,0,0-.11,1.15,8.33,8.33,0,1,0,11.47-7.56Z" transform="translate(-5.11 -4.21)" style="fill: #fdc006"/>
      <path d="M46.19,43.45l-7.06,4a4.43,4.43,0,1,0,7.06-4Z" transform="translate(-5.11 -4.21)"/>
      <path d="M49.24,41.85l-3.19,1.81a2.22,2.22,0,0,0-.06.46,2.45,2.45,0,1,0,3.25-2.27Z" transform="translate(-5.11 -4.21)" style="fill: #fff"/>
      <polygon points="51.66 33.69 30.01 45.81 51.14 32.84 51.66 33.69"/>
    </g>
    <path d="M26.85,74.13a3.17,3.17,0,0,1,.38-.1c.25,0,.59-.13,1-.18s.9-.11,1.42-.14l.8,0h.83l.83,0c.27,0,.54,0,.8.06.51,0,1,.11,1.41.19s.76.17,1,.22l.38.11-.38.09c-.24,0-.59.13-1,.18s-.9.11-1.42.14c-.26,0-.53,0-.8,0h-.83l-.82,0-.8-.06c-.52,0-1-.11-1.42-.19s-.76-.16-1-.21Z" transform="translate(-5.11 -4.21)" style="fill: #b8312f"/>
    <path d="M49,110l-11.5-.2,0,2.51,11.5.2a6,6,0,0,0,6.08-5.87l0-2.51A6,6,0,0,1,49,110Z" transform="translate(-5.11 -4.21)" style="fill: #b8312f"/>
    <path d="M23,109.71c-.33,0-.73,0-1.23,0-2-.08-3.92-.2-5.88-.31L11,109.3a6,6,0,0,1-5.87-6.08l0,2.5A6,6,0,0,0,11,111.81l4.88.08c2,.12,3.92.24,5.88.32.5,0,.9,0,1.23,0Z" transform="translate(-5.11 -4.21)" style="fill: #b8312f"/>
    <path d="M16.89,71.88s.48-.15,1.32-.32,2-.43,3.46-.6,3.1-.36,4.89-.45l2.75-.1h2.85l2.84.11c.93,0,1.85.13,2.75.19,1.78.16,3.44.38,4.87.63s2.61.56,3.44.72,1.3.37,1.3.37-.48.14-1.31.31-2,.44-3.47.61-3.1.36-4.89.45c-.89,0-1.82.11-2.75.1H32.09l-2.84-.11-2.75-.2c-1.78-.15-3.44-.37-4.87-.62s-2.61-.56-3.44-.72S16.89,71.88,16.89,71.88Z" transform="translate(-5.11 -4.21)" style="fill: #d14841"/>
    <path d="M11.25,71.43,13,71.36c1.09,0,2.66-.08,4.55-.1s4.08-.05,6.43,0l3.63,0,3.74.05,3.75.08c1.23,0,2.45.07,3.62.11,2.35.07,4.55.17,6.43.26s3.45.21,4.55.27l1.72.13-1.73.07c-1.1,0-2.67.08-4.55.11s-4.08,0-6.43,0c-1.18,0-2.4,0-3.63,0l-3.75,0-3.74-.08-3.63-.11c-2.35-.08-4.54-.17-6.42-.27s-3.45-.2-4.55-.26Z" transform="translate(-5.11 -4.21)"/>
    <path d="M11.26,70.93,13,70.87c1.1,0,2.67-.09,4.56-.11s4.08-.05,6.43,0l3.63,0,3.74.05,3.75.08,3.62.11c2.35.08,4.55.17,6.43.27s3.45.2,4.54.27l1.73.12s-.63,0-1.73.07-2.67.09-4.55.11-4.08,0-6.43,0c-1.18,0-2.4,0-3.63,0l-3.75,0-3.74-.09L24,71.59c-2.35-.07-4.54-.16-6.42-.26s-3.45-.21-4.55-.27S11.26,70.93,11.26,70.93Z" transform="translate(-5.11 -4.21)" style="fill: #fdc006"/>
  </g>
</svg>
